# xmcd
#
# Track frame offsets:
#	151
#	15901
#	27896
#	42402
#	58269
#	73876
#	87644
#	100891
#	115820
#	130068
#	144476
#	159980
#	175800
#	190138
#	204782
#	218370
#	232960
#	247557
#
# Disc length: 3503 seconds
#
# Revision: 0
# Processed by: cddbd v1.5.1PL0 Copyright (c) Steve Scherf et al.
# Submitted via: dBpowerAMP V4.0
#
DISCID=e60dad12
DTITLE=Bessie Smith - Best of Bessie Smith
DYEAR=2001
DGENRE=Blues
TTITLE0=Do Your Duty
TTITLE1=Take Me For A Buggy Ride
TTITLE2=I'm Down In The Dumps
TTITLE3=Gimme A Pigfoot
TTITLE4=Safety Mama
TTITLE5=Nobody Knows You When You're Down And Out
TTITLE6=Me And My Gin
TTITLE7=He's Got Me Goin'
TTITLE8=Muddy Water
TTITLE9=Young Woman's Blues
TTITLE10=Take It Right Back
TTITLE11=Careless Love
TTITLE12=I Ain't Got Nobody
TTITLE13=My Sweetie Went Away
TTITLE14=Far Away Blues
TTITLE15=St. Louis Blues
TTITLE16=Care Walkin' Babies
TTITLE17=I Ain't Gonna Play No Second Fiddle
EXTD=
EXTT0=
EXTT1=
EXTT2=
EXTT3=
EXTT4=
EXTT5=
EXTT6=
EXTT7=
EXTT8=
EXTT9=
EXTT10=
EXTT11=
EXTT12=
EXTT13=
EXTT14=
EXTT15=
EXTT16=
EXTT17=
PLAYORDER=
